# xmcd CD database file
#
# Track frame offsets:
#	182
#	31002
#	61700
#	89477
#	130785
#	156232
#	187160
#	211737
#
# Disc length: 3163 seconds
#
# Revision: 20
# Processed by: cddbd v1.5.1PL2 Copyright (c) Steve Scherf et al.
# Submitted via: CDex 1.40Release
#
DISCID=630c5908
DTITLE=Eric Clapton - 24 Nights [CD1] (live from The Royal Albert Hall, London, 1990, 1991)
DYEAR=1991
DGENRE=Rock
TTITLE0=Badge (4 Piece Band)
TTITLE1=Running On Faith (4 Piece Band)
TTITLE2=White Room (4 Piece Band)
TTITLE3=Sunshine Of Your Love (4 Piece Band)
TTITLE4=Watch Yourself (Blues Band)
TTITLE5=Have You Ever Loved A Woman (Blues Band)
TTITLE6=Worried Life Blues (Blues Band)
TTITLE7=Hoodoo Man (Blues Band)
EXTD=Recorded live at The Royal Albert Hall, London.\n\n1990 and 1991\n\n\n\nProduced by Russ Titelman YEAR: 1991 ID3G: 17
EXTT0=
EXTT1=
EXTT2=
EXTT3=
EXTT4=
EXTT5=
EXTT6=
EXTT7=
PLAYORDER=
